<mxfile host="www.draw.io" modified="2020-01-28T09:20:09.877Z" agent="Mozilla/5.0 (Windows NT 6.1; Win64; x64) AppleWebKit/537.36 (KHTML, like Gecko) Chrome/78.0.3904.97 Safari/537.36" etag="Wxot4CQEVhaTXE76Aczz" version="12.5.8" type="github">
  <diagram id="584rxZ2lj__Bb-bqf24h" name="Page-1">
    <mxGraphModel dx="1422" dy="745" grid="1" gridSize="10" guides="1" tooltips="1" connect="1" arrows="1" fold="1" page="1" pageScale="1" pageWidth="827" pageHeight="1169" math="0" shadow="0" extFonts="宋体^https://fonts.googleapis.com/css?family=%E5%AE%8B%E4%BD%93">
      <root>
        <mxCell id="0"/>
        <mxCell id="1" parent="0"/>
        <mxCell id="D4T93Kf8Fg8kUSdN_M_G-5" value="" style="rounded=0;whiteSpace=wrap;html=1;fontFamily=Times New Roman;" parent="1" vertex="1">
          <mxGeometry x="212" y="1485" width="240" height="10" as="geometry"/>
        </mxCell>
        <mxCell id="D4T93Kf8Fg8kUSdN_M_G-6" value="" style="rounded=0;whiteSpace=wrap;html=1;fontFamily=Times New Roman;" parent="1" vertex="1">
          <mxGeometry x="212" y="1445" width="240" height="10" as="geometry"/>
        </mxCell>
        <mxCell id="D4T93Kf8Fg8kUSdN_M_G-7" value="" style="endArrow=none;html=1;fontFamily=Times New Roman;" parent="1" edge="1">
          <mxGeometry width="50" height="50" relative="1" as="geometry">
            <mxPoint x="12" y="1678.5" as="sourcePoint"/>
            <mxPoint x="412" y="1678.5" as="targetPoint"/>
          </mxGeometry>
        </mxCell>
        <mxCell id="D4T93Kf8Fg8kUSdN_M_G-10" value="" style="rounded=0;whiteSpace=wrap;html=1;dashed=1;glass=1;fillColor=none;fontFamily=Times New Roman;" parent="1" vertex="1">
          <mxGeometry x="244.5" y="1442.5" width="175" height="15" as="geometry"/>
        </mxCell>
        <mxCell id="D4T93Kf8Fg8kUSdN_M_G-11" value="" style="shape=flexArrow;endArrow=classic;html=1;endWidth=10;endSize=3.7000000000000006;fontFamily=Times New Roman;" parent="1" edge="1">
          <mxGeometry width="50" height="50" relative="1" as="geometry">
            <mxPoint x="331.17" y="1477.5" as="sourcePoint"/>
            <mxPoint x="331.17" y="1457.5" as="targetPoint"/>
          </mxGeometry>
        </mxCell>
        <mxCell id="D4T93Kf8Fg8kUSdN_M_G-12" value="" style="shape=flexArrow;endArrow=classic;html=1;endWidth=10;endSize=3.7000000000000006;fontFamily=Times New Roman;" parent="1" edge="1">
          <mxGeometry width="50" height="50" relative="1" as="geometry">
            <mxPoint x="331.1700000000001" y="1515" as="sourcePoint"/>
            <mxPoint x="331.1700000000001" y="1495" as="targetPoint"/>
          </mxGeometry>
        </mxCell>
        <mxCell id="D4T93Kf8Fg8kUSdN_M_G-13" value="" style="rounded=0;whiteSpace=wrap;html=1;fontFamily=Times New Roman;" parent="1" vertex="1">
          <mxGeometry x="496" y="1442.5" width="120" height="10" as="geometry"/>
        </mxCell>
        <mxCell id="D4T93Kf8Fg8kUSdN_M_G-19" value="" style="shape=flexArrow;endArrow=classic;html=1;endWidth=10;endSize=3.7000000000000006;fontFamily=Times New Roman;" parent="1" edge="1">
          <mxGeometry width="50" height="50" relative="1" as="geometry">
            <mxPoint x="555.71" y="1435" as="sourcePoint"/>
            <mxPoint x="555.71" y="1415" as="targetPoint"/>
            <Array as="points">
              <mxPoint x="555.71" y="1427.5"/>
            </Array>
          </mxGeometry>
        </mxCell>
        <mxCell id="D4T93Kf8Fg8kUSdN_M_G-22" value="" style="rounded=0;whiteSpace=wrap;html=1;fontFamily=Times New Roman;" parent="1" vertex="1">
          <mxGeometry x="496" y="1395" width="120" height="20" as="geometry"/>
        </mxCell>
        <mxCell id="D4T93Kf8Fg8kUSdN_M_G-23" value="" style="rounded=0;whiteSpace=wrap;html=1;fontFamily=Times New Roman;" parent="1" vertex="1">
          <mxGeometry x="496" y="1347.03" width="120" height="20" as="geometry"/>
        </mxCell>
        <mxCell id="D4T93Kf8Fg8kUSdN_M_G-24" value="" style="shape=flexArrow;endArrow=classic;html=1;endWidth=10;endSize=3.7000000000000006;fontFamily=Times New Roman;" parent="1" edge="1">
          <mxGeometry width="50" height="50" relative="1" as="geometry">
            <mxPoint x="555.4200000000001" y="1387.03" as="sourcePoint"/>
            <mxPoint x="555.4200000000001" y="1367.03" as="targetPoint"/>
            <Array as="points">
              <mxPoint x="555.42" y="1379.53"/>
            </Array>
          </mxGeometry>
        </mxCell>
        <mxCell id="D4T93Kf8Fg8kUSdN_M_G-26" value="" style="rounded=0;whiteSpace=wrap;html=1;dashed=1;glass=1;fillColor=none;fontFamily=Times New Roman;" parent="1" vertex="1">
          <mxGeometry x="506.31999999999994" y="1345" width="99.37" height="24.06" as="geometry"/>
        </mxCell>
        <mxCell id="D4T93Kf8Fg8kUSdN_M_G-27" value="" style="shape=flexArrow;endArrow=classic;html=1;endWidth=10;endSize=3.7000000000000006;fontFamily=Times New Roman;" parent="1" edge="1">
          <mxGeometry width="50" height="50" relative="1" as="geometry">
            <mxPoint x="462" y="1449.76" as="sourcePoint"/>
            <mxPoint x="492" y="1449.76" as="targetPoint"/>
            <Array as="points">
              <mxPoint x="472" y="1449.76"/>
            </Array>
          </mxGeometry>
        </mxCell>
        <mxCell id="D4T93Kf8Fg8kUSdN_M_G-28" value="" style="rounded=0;whiteSpace=wrap;html=1;fontFamily=Times New Roman;" parent="1" vertex="1">
          <mxGeometry x="662" y="1347.03" width="60" height="20" as="geometry"/>
        </mxCell>
        <mxCell id="D4T93Kf8Fg8kUSdN_M_G-29" value="" style="shape=flexArrow;endArrow=classic;html=1;endWidth=10;endSize=3.7000000000000006;fontFamily=Times New Roman;" parent="1" edge="1">
          <mxGeometry width="50" height="50" relative="1" as="geometry">
            <mxPoint x="691.6600000000001" y="1342" as="sourcePoint"/>
            <mxPoint x="691.6600000000001" y="1322" as="targetPoint"/>
            <Array as="points">
              <mxPoint x="691.6600000000001" y="1334.5"/>
            </Array>
          </mxGeometry>
        </mxCell>
        <mxCell id="D4T93Kf8Fg8kUSdN_M_G-30" value="" style="rounded=0;whiteSpace=wrap;html=1;fontFamily=Times New Roman;" parent="1" vertex="1">
          <mxGeometry x="662" y="1282" width="60" height="40" as="geometry"/>
        </mxCell>
        <mxCell id="D4T93Kf8Fg8kUSdN_M_G-31" value="" style="rounded=0;whiteSpace=wrap;html=1;fontFamily=Times New Roman;" parent="1" vertex="1">
          <mxGeometry x="662" y="1215" width="60" height="40" as="geometry"/>
        </mxCell>
        <mxCell id="D4T93Kf8Fg8kUSdN_M_G-32" value="" style="shape=flexArrow;endArrow=classic;html=1;endWidth=10;endSize=3.7000000000000006;fontFamily=Times New Roman;" parent="1" edge="1">
          <mxGeometry width="50" height="50" relative="1" as="geometry">
            <mxPoint x="691.6600000000001" y="1277" as="sourcePoint"/>
            <mxPoint x="691.6600000000001" y="1257" as="targetPoint"/>
            <Array as="points">
              <mxPoint x="691.66" y="1269.5"/>
            </Array>
          </mxGeometry>
        </mxCell>
        <mxCell id="D4T93Kf8Fg8kUSdN_M_G-33" value="" style="rounded=0;whiteSpace=wrap;html=1;dashed=1;glass=1;fillColor=none;fontFamily=Times New Roman;" parent="1" vertex="1">
          <mxGeometry x="667" y="1210" width="50" height="50" as="geometry"/>
        </mxCell>
        <mxCell id="D4T93Kf8Fg8kUSdN_M_G-34" value="" style="shape=flexArrow;endArrow=classic;html=1;endWidth=10;endSize=3.7000000000000006;fontFamily=Times New Roman;" parent="1" edge="1">
          <mxGeometry width="50" height="50" relative="1" as="geometry">
            <mxPoint x="628.3199999999999" y="1356.69" as="sourcePoint"/>
            <mxPoint x="658.3199999999999" y="1356.69" as="targetPoint"/>
            <Array as="points">
              <mxPoint x="638.3199999999999" y="1356.69"/>
            </Array>
          </mxGeometry>
        </mxCell>
        <mxCell id="D4T93Kf8Fg8kUSdN_M_G-35" value="" style="rounded=0;whiteSpace=wrap;html=1;fontFamily=Times New Roman;" parent="1" vertex="1">
          <mxGeometry x="768.6800000000001" y="1215" width="30" height="40" as="geometry"/>
        </mxCell>
        <mxCell id="D4T93Kf8Fg8kUSdN_M_G-36" value="" style="shape=flexArrow;endArrow=classic;html=1;endWidth=10;endSize=3.7000000000000006;fontFamily=Times New Roman;" parent="1" edge="1">
          <mxGeometry width="50" height="50" relative="1" as="geometry">
            <mxPoint x="782.8500000000001" y="1210" as="sourcePoint"/>
            <mxPoint x="782.8500000000001" y="1190" as="targetPoint"/>
            <Array as="points">
              <mxPoint x="782.8500000000001" y="1202.5"/>
            </Array>
          </mxGeometry>
        </mxCell>
        <mxCell id="D4T93Kf8Fg8kUSdN_M_G-37" value="" style="rounded=0;whiteSpace=wrap;html=1;fontFamily=Times New Roman;" parent="1" vertex="1">
          <mxGeometry x="768.68" y="1100" width="30" height="85" as="geometry"/>
        </mxCell>
        <mxCell id="D4T93Kf8Fg8kUSdN_M_G-38" value="" style="rounded=0;whiteSpace=wrap;html=1;fontFamily=Times New Roman;" parent="1" vertex="1">
          <mxGeometry x="768.68" y="965" width="30" height="105" as="geometry"/>
        </mxCell>
        <mxCell id="D4T93Kf8Fg8kUSdN_M_G-39" value="" style="shape=flexArrow;endArrow=classic;html=1;endWidth=10;endSize=3.7000000000000006;fontFamily=Times New Roman;" parent="1" edge="1">
          <mxGeometry width="50" height="50" relative="1" as="geometry">
            <mxPoint x="782.8500000000001" y="1095" as="sourcePoint"/>
            <mxPoint x="782.8500000000001" y="1075" as="targetPoint"/>
            <Array as="points">
              <mxPoint x="782.8499999999999" y="1087.5"/>
            </Array>
          </mxGeometry>
        </mxCell>
        <mxCell id="D4T93Kf8Fg8kUSdN_M_G-41" value="" style="shape=flexArrow;endArrow=classic;html=1;endWidth=10;endSize=3.7000000000000006;fontFamily=Times New Roman;" parent="1" edge="1">
          <mxGeometry width="50" height="50" relative="1" as="geometry">
            <mxPoint x="733" y="1233.69" as="sourcePoint"/>
            <mxPoint x="763" y="1233.69" as="targetPoint"/>
            <Array as="points">
              <mxPoint x="743" y="1233.69"/>
            </Array>
          </mxGeometry>
        </mxCell>
        <mxCell id="D4T93Kf8Fg8kUSdN_M_G-43" value="" style="rounded=0;whiteSpace=wrap;html=1;fontFamily=Times New Roman;" parent="1" vertex="1">
          <mxGeometry x="212" y="1520" width="240" height="5" as="geometry"/>
        </mxCell>
        <mxCell id="D4T93Kf8Fg8kUSdN_M_G-44" value="" style="rounded=0;whiteSpace=wrap;html=1;fontFamily=Times New Roman;" parent="1" vertex="1">
          <mxGeometry x="12" y="1587.5" width="400" height="5" as="geometry"/>
        </mxCell>
        <mxCell id="D4T93Kf8Fg8kUSdN_M_G-45" value="" style="rounded=0;whiteSpace=wrap;html=1;fontFamily=Times New Roman;" parent="1" vertex="1">
          <mxGeometry x="12" y="1636.5" width="400" height="5" as="geometry"/>
        </mxCell>
        <mxCell id="D4T93Kf8Fg8kUSdN_M_G-46" value="" style="shape=flexArrow;endArrow=classic;html=1;endWidth=10;endSize=3.7000000000000006;fontFamily=Times New Roman;" parent="1" edge="1">
          <mxGeometry width="50" height="50" relative="1" as="geometry">
            <mxPoint x="210.75000000000006" y="1618.5" as="sourcePoint"/>
            <mxPoint x="210.75000000000006" y="1598.5" as="targetPoint"/>
          </mxGeometry>
        </mxCell>
        <mxCell id="D4T93Kf8Fg8kUSdN_M_G-47" value="" style="shape=flexArrow;endArrow=classic;html=1;endWidth=10;endSize=3.7000000000000006;fontFamily=Times New Roman;" parent="1" edge="1">
          <mxGeometry width="50" height="50" relative="1" as="geometry">
            <mxPoint x="210.75000000000006" y="1668.5" as="sourcePoint"/>
            <mxPoint x="210.75000000000006" y="1648.5" as="targetPoint"/>
          </mxGeometry>
        </mxCell>
        <mxCell id="D4T93Kf8Fg8kUSdN_M_G-48" value="" style="rounded=0;whiteSpace=wrap;html=1;dashed=1;glass=1;fillColor=none;fontFamily=Times New Roman;" parent="1" vertex="1">
          <mxGeometry x="52" y="1580" width="320" height="20" as="geometry"/>
        </mxCell>
        <mxCell id="D4T93Kf8Fg8kUSdN_M_G-50" value="" style="shape=flexArrow;endArrow=classic;html=1;endWidth=10;endSize=3.7000000000000006;fontFamily=Times New Roman;" parent="1" edge="1">
          <mxGeometry width="50" height="50" relative="1" as="geometry">
            <mxPoint x="407" y="1570" as="sourcePoint"/>
            <mxPoint x="407" y="1540" as="targetPoint"/>
          </mxGeometry>
        </mxCell>
        <mxCell id="D4T93Kf8Fg8kUSdN_M_G-52" value="" style="rounded=0;whiteSpace=wrap;html=1;glass=1;fillColor=none;fontFamily=Times New Roman;" parent="1" vertex="1">
          <mxGeometry x="667" y="1030" width="50" height="50" as="geometry"/>
        </mxCell>
        <mxCell id="D4T93Kf8Fg8kUSdN_M_G-53" value="" style="rounded=0;whiteSpace=wrap;html=1;glass=1;fillColor=none;fontFamily=Times New Roman;" parent="1" vertex="1">
          <mxGeometry x="667" y="980" width="50" height="50" as="geometry"/>
        </mxCell>
        <mxCell id="D4T93Kf8Fg8kUSdN_M_G-58" value="" style="shape=flexArrow;endArrow=classic;html=1;endWidth=7.142857142857143;endSize=3.7306451612903224;width=11.612903225806452;fontFamily=Times New Roman;" parent="1" edge="1">
          <mxGeometry width="50" height="50" relative="1" as="geometry">
            <mxPoint x="762" y="1019.29" as="sourcePoint"/>
            <mxPoint x="732" y="1019.29" as="targetPoint"/>
          </mxGeometry>
        </mxCell>
        <mxCell id="D4T93Kf8Fg8kUSdN_M_G-62" value="" style="shape=flexArrow;endArrow=classic;html=1;endWidth=10;endSize=3.7000000000000006;fontFamily=Times New Roman;" parent="1" edge="1">
          <mxGeometry width="50" height="50" relative="1" as="geometry">
            <mxPoint x="691.0000000000001" y="975" as="sourcePoint"/>
            <mxPoint x="691.0000000000001" y="955" as="targetPoint"/>
            <Array as="points">
              <mxPoint x="690.9999999999999" y="967.5"/>
            </Array>
          </mxGeometry>
        </mxCell>
        <mxCell id="D4T93Kf8Fg8kUSdN_M_G-63" value="" style="rounded=0;whiteSpace=wrap;html=1;glass=1;fillColor=none;fontFamily=Times New Roman;" parent="1" vertex="1">
          <mxGeometry x="667" y="902" width="50" height="50" as="geometry"/>
        </mxCell>
        <mxCell id="D4T93Kf8Fg8kUSdN_M_G-64" value="" style="rounded=0;whiteSpace=wrap;html=1;glass=1;fillColor=none;fontFamily=Times New Roman;" parent="1" vertex="1">
          <mxGeometry x="667" y="824" width="50" height="50" as="geometry"/>
        </mxCell>
        <mxCell id="D4T93Kf8Fg8kUSdN_M_G-65" value="" style="shape=flexArrow;endArrow=classic;html=1;endWidth=10;endSize=3.7000000000000006;fontFamily=Times New Roman;" parent="1" edge="1">
          <mxGeometry width="50" height="50" relative="1" as="geometry">
            <mxPoint x="691.17" y="898" as="sourcePoint"/>
            <mxPoint x="691.17" y="878" as="targetPoint"/>
            <Array as="points">
              <mxPoint x="691.1699999999998" y="890.5"/>
            </Array>
          </mxGeometry>
        </mxCell>
        <mxCell id="D4T93Kf8Fg8kUSdN_M_G-66" value="" style="rounded=0;whiteSpace=wrap;html=1;glass=1;fillColor=none;fontFamily=Times New Roman;" parent="1" vertex="1">
          <mxGeometry x="516.63" y="859" width="99.37" height="24.06" as="geometry"/>
        </mxCell>
        <mxCell id="D4T93Kf8Fg8kUSdN_M_G-67" value="" style="rounded=0;whiteSpace=wrap;html=1;glass=1;fillColor=none;fontFamily=Times New Roman;" parent="1" vertex="1">
          <mxGeometry x="516.63" y="834.94" width="99.37" height="24.06" as="geometry"/>
        </mxCell>
        <mxCell id="D4T93Kf8Fg8kUSdN_M_G-68" value="" style="shape=flexArrow;endArrow=classic;html=1;endWidth=7.142857142857143;endSize=3.7306451612903224;width=11.612903225806452;fontFamily=Times New Roman;" parent="1" edge="1">
          <mxGeometry width="50" height="50" relative="1" as="geometry">
            <mxPoint x="656" y="848.1700000000001" as="sourcePoint"/>
            <mxPoint x="626" y="848.1700000000001" as="targetPoint"/>
          </mxGeometry>
        </mxCell>
        <mxCell id="D4T93Kf8Fg8kUSdN_M_G-69" value="" style="shape=flexArrow;endArrow=classic;html=1;endWidth=10;endSize=3.7000000000000006;fontFamily=Times New Roman;" parent="1" edge="1">
          <mxGeometry width="50" height="50" relative="1" as="geometry">
            <mxPoint x="565.48" y="830" as="sourcePoint"/>
            <mxPoint x="565.48" y="810" as="targetPoint"/>
            <Array as="points">
              <mxPoint x="565.4799999999998" y="822.5"/>
            </Array>
          </mxGeometry>
        </mxCell>
        <mxCell id="D4T93Kf8Fg8kUSdN_M_G-70" value="" style="rounded=0;whiteSpace=wrap;html=1;glass=1;fillColor=none;fontFamily=Times New Roman;" parent="1" vertex="1">
          <mxGeometry x="516.63" y="782" width="99.37" height="24.06" as="geometry"/>
        </mxCell>
        <mxCell id="D4T93Kf8Fg8kUSdN_M_G-71" value="" style="shape=flexArrow;endArrow=classic;html=1;endWidth=10;endSize=3.7000000000000006;fontFamily=Times New Roman;" parent="1" edge="1">
          <mxGeometry width="50" height="50" relative="1" as="geometry">
            <mxPoint x="565.48" y="777" as="sourcePoint"/>
            <mxPoint x="565.48" y="757" as="targetPoint"/>
            <Array as="points">
              <mxPoint x="565.4799999999998" y="769.5"/>
            </Array>
          </mxGeometry>
        </mxCell>
        <mxCell id="D4T93Kf8Fg8kUSdN_M_G-72" value="" style="rounded=0;whiteSpace=wrap;html=1;glass=1;fillColor=none;fontFamily=Times New Roman;" parent="1" vertex="1">
          <mxGeometry x="516.63" y="730" width="99.37" height="24.06" as="geometry"/>
        </mxCell>
        <mxCell id="D4T93Kf8Fg8kUSdN_M_G-73" value="" style="shape=flexArrow;endArrow=classic;html=1;endWidth=7.142857142857143;endSize=3.7306451612903224;width=11.612903225806452;fontFamily=Times New Roman;" parent="1" edge="1">
          <mxGeometry width="50" height="50" relative="1" as="geometry">
            <mxPoint x="492" y="742" as="sourcePoint"/>
            <mxPoint x="452" y="742" as="targetPoint"/>
          </mxGeometry>
        </mxCell>
        <mxCell id="D4T93Kf8Fg8kUSdN_M_G-77" value="" style="rounded=0;whiteSpace=wrap;html=1;glass=1;fillColor=none;fontFamily=Times New Roman;" parent="1" vertex="1">
          <mxGeometry x="244.5" y="751.06" width="175" height="15" as="geometry"/>
        </mxCell>
        <mxCell id="D4T93Kf8Fg8kUSdN_M_G-78" value="" style="rounded=0;whiteSpace=wrap;html=1;glass=1;fillColor=none;fontFamily=Times New Roman;" parent="1" vertex="1">
          <mxGeometry x="244.5" y="736.06" width="175" height="15" as="geometry"/>
        </mxCell>
        <mxCell id="D4T93Kf8Fg8kUSdN_M_G-79" value="" style="shape=flexArrow;endArrow=classic;html=1;endWidth=10;endSize=3.7000000000000006;fontFamily=Times New Roman;" parent="1" edge="1">
          <mxGeometry width="50" height="50" relative="1" as="geometry">
            <mxPoint x="331.17" y="732" as="sourcePoint"/>
            <mxPoint x="331.17" y="712" as="targetPoint"/>
            <Array as="points">
              <mxPoint x="331.1699999999998" y="724.5"/>
            </Array>
          </mxGeometry>
        </mxCell>
        <mxCell id="D4T93Kf8Fg8kUSdN_M_G-80" value="" style="rounded=0;whiteSpace=wrap;html=1;glass=1;fillColor=none;fontFamily=Times New Roman;" parent="1" vertex="1">
          <mxGeometry x="244.5" y="692" width="175" height="15" as="geometry"/>
        </mxCell>
        <mxCell id="D4T93Kf8Fg8kUSdN_M_G-82" value="" style="shape=flexArrow;endArrow=classic;html=1;endWidth=10;endSize=3.7000000000000006;fontFamily=Times New Roman;" parent="1" edge="1">
          <mxGeometry width="50" height="50" relative="1" as="geometry">
            <mxPoint x="331.1700000000001" y="688" as="sourcePoint"/>
            <mxPoint x="331.1700000000001" y="668" as="targetPoint"/>
            <Array as="points">
              <mxPoint x="331.1699999999998" y="680.5"/>
            </Array>
          </mxGeometry>
        </mxCell>
        <mxCell id="D4T93Kf8Fg8kUSdN_M_G-85" value="" style="rounded=0;whiteSpace=wrap;html=1;glass=1;fillColor=none;fontFamily=Times New Roman;" parent="1" vertex="1">
          <mxGeometry x="244.5" y="650" width="175" height="15" as="geometry"/>
        </mxCell>
        <mxCell id="D4T93Kf8Fg8kUSdN_M_G-86" value="" style="rounded=0;whiteSpace=wrap;html=1;glass=1;fillColor=none;fontFamily=Times New Roman;" parent="1" vertex="1">
          <mxGeometry x="52" y="583.9999999999999" width="320" height="5" as="geometry"/>
        </mxCell>
        <mxCell id="D4T93Kf8Fg8kUSdN_M_G-87" value="" style="rounded=0;whiteSpace=wrap;html=1;glass=1;fillColor=none;fontFamily=Times New Roman;" parent="1" vertex="1">
          <mxGeometry x="52" y="578.9999999999999" width="320" height="5" as="geometry"/>
        </mxCell>
        <mxCell id="D4T93Kf8Fg8kUSdN_M_G-89" value="" style="rounded=0;whiteSpace=wrap;html=1;glass=1;fillColor=none;fontFamily=Times New Roman;" parent="1" vertex="1">
          <mxGeometry x="52" y="539.9999999999999" width="320" height="5" as="geometry"/>
        </mxCell>
        <mxCell id="D4T93Kf8Fg8kUSdN_M_G-90" value="" style="rounded=0;whiteSpace=wrap;html=1;glass=1;fillColor=none;fontFamily=Times New Roman;" parent="1" vertex="1">
          <mxGeometry x="52" y="499.9999999999999" width="320" height="5" as="geometry"/>
        </mxCell>
        <mxCell id="D4T93Kf8Fg8kUSdN_M_G-91" value="" style="shape=flexArrow;endArrow=classic;html=1;endWidth=10;endSize=3.7000000000000006;fontFamily=Times New Roman;" parent="1" edge="1">
          <mxGeometry width="50" height="50" relative="1" as="geometry">
            <mxPoint x="210.00000000000009" y="574" as="sourcePoint"/>
            <mxPoint x="210.00000000000009" y="554" as="targetPoint"/>
            <Array as="points">
              <mxPoint x="209.9999999999998" y="566.5"/>
            </Array>
          </mxGeometry>
        </mxCell>
        <mxCell id="D4T93Kf8Fg8kUSdN_M_G-92" value="" style="shape=flexArrow;endArrow=classic;html=1;endWidth=10;endSize=3.7000000000000006;fontFamily=Times New Roman;" parent="1" edge="1">
          <mxGeometry width="50" height="50" relative="1" as="geometry">
            <mxPoint x="211.0000000000001" y="533" as="sourcePoint"/>
            <mxPoint x="211.0000000000001" y="513" as="targetPoint"/>
            <Array as="points">
              <mxPoint x="210.9999999999998" y="525.5"/>
            </Array>
          </mxGeometry>
        </mxCell>
        <mxCell id="D4T93Kf8Fg8kUSdN_M_G-93" value="" style="shape=flexArrow;endArrow=classic;html=1;endWidth=10;endSize=3.7000000000000006;fontFamily=Times New Roman;" parent="1" edge="1">
          <mxGeometry width="50" height="50" relative="1" as="geometry">
            <mxPoint x="212.0000000000001" y="490" as="sourcePoint"/>
            <mxPoint x="212.0000000000001" y="470" as="targetPoint"/>
            <Array as="points">
              <mxPoint x="211.9999999999998" y="482.5"/>
            </Array>
          </mxGeometry>
        </mxCell>
        <mxCell id="D4T93Kf8Fg8kUSdN_M_G-95" value="" style="shape=flexArrow;endArrow=classic;html=1;endWidth=10;endSize=3.7000000000000006;fontFamily=Times New Roman;" parent="1" edge="1">
          <mxGeometry width="50" height="50" relative="1" as="geometry">
            <mxPoint x="370" y="640" as="sourcePoint"/>
            <mxPoint x="370" y="610" as="targetPoint"/>
          </mxGeometry>
        </mxCell>
        <mxCell id="D4T93Kf8Fg8kUSdN_M_G-96" value="" style="endArrow=none;html=1;fontFamily=Times New Roman;" parent="1" edge="1">
          <mxGeometry width="50" height="50" relative="1" as="geometry">
            <mxPoint x="52" y="460" as="sourcePoint"/>
            <mxPoint x="370" y="460" as="targetPoint"/>
          </mxGeometry>
        </mxCell>
        <mxCell id="D4T93Kf8Fg8kUSdN_M_G-99" value="" style="endArrow=classic;html=1;fontFamily=Times New Roman;" parent="1" edge="1">
          <mxGeometry width="50" height="50" relative="1" as="geometry">
            <mxPoint x="330" y="1395" as="sourcePoint"/>
            <mxPoint x="330" y="820" as="targetPoint"/>
          </mxGeometry>
        </mxCell>
        <mxCell id="D4T93Kf8Fg8kUSdN_M_G-101" value="" style="endArrow=classic;html=1;fontFamily=Times New Roman;" parent="1" edge="1">
          <mxGeometry width="50" height="50" relative="1" as="geometry">
            <mxPoint x="564.3199999999999" y="1295.94" as="sourcePoint"/>
            <mxPoint x="564.3199999999999" y="926" as="targetPoint"/>
          </mxGeometry>
        </mxCell>
        <mxCell id="D4T93Kf8Fg8kUSdN_M_G-102" value="" style="endArrow=classic;html=1;fontFamily=Times New Roman;" parent="1" edge="1">
          <mxGeometry width="50" height="50" relative="1" as="geometry">
            <mxPoint x="690" y="1186" as="sourcePoint"/>
            <mxPoint x="690" y="1096" as="targetPoint"/>
          </mxGeometry>
        </mxCell>
        <mxCell id="D4T93Kf8Fg8kUSdN_M_G-103" value="&lt;font style=&quot;font-size: 42px&quot; face=&quot;宋体&quot;&gt;输入图像&lt;/font&gt;" style="text;html=1;align=center;verticalAlign=middle;resizable=0;points=[];autosize=1;fontSize=42;fontFamily=Times New Roman;" parent="1" vertex="1">
          <mxGeometry x="122" y="1690" width="180" height="60" as="geometry"/>
        </mxCell>
        <mxCell id="D4T93Kf8Fg8kUSdN_M_G-104" value="&lt;span style=&quot;font-size: 42px&quot;&gt;&lt;font style=&quot;font-size: 42px&quot; face=&quot;宋体&quot;&gt;跳跃&lt;br&gt;连接&lt;/font&gt;&lt;/span&gt;" style="text;html=1;align=center;verticalAlign=middle;resizable=0;points=[];autosize=1;fontSize=42;fontFamily=Times New Roman;" parent="1" vertex="1">
          <mxGeometry x="22" y="950" width="100" height="110" as="geometry"/>
        </mxCell>
        <mxCell id="D4T93Kf8Fg8kUSdN_M_G-105" value="" style="endArrow=classic;html=1;fontFamily=Times New Roman;" parent="1" edge="1">
          <mxGeometry width="50" height="50" relative="1" as="geometry">
            <mxPoint x="150" y="1525" as="sourcePoint"/>
            <mxPoint x="150" y="650" as="targetPoint"/>
          </mxGeometry>
        </mxCell>
        <mxCell id="D4T93Kf8Fg8kUSdN_M_G-107" value="572x572" style="text;html=1;align=center;verticalAlign=middle;resizable=0;points=[];autosize=1;fontSize=12;fontFamily=Times New Roman;" parent="1" vertex="1">
          <mxGeometry x="352" y="1690" width="60" height="20" as="geometry"/>
        </mxCell>
        <mxCell id="D4T93Kf8Fg8kUSdN_M_G-112" value="568x568" style="text;html=1;align=center;verticalAlign=middle;resizable=0;points=[];autosize=1;fontSize=12;fontFamily=Times New Roman;" parent="1" vertex="1">
          <mxGeometry x="352" y="1595" width="60" height="20" as="geometry"/>
        </mxCell>
        <mxCell id="D4T93Kf8Fg8kUSdN_M_G-113" value="1" style="text;html=1;align=center;verticalAlign=middle;resizable=0;points=[];autosize=1;fontSize=12;fontFamily=Times New Roman;" parent="1" vertex="1">
          <mxGeometry x="419.5" y="1670" width="20" height="20" as="geometry"/>
        </mxCell>
        <mxCell id="D4T93Kf8Fg8kUSdN_M_G-114" value="64" style="text;html=1;align=center;verticalAlign=middle;resizable=0;points=[];autosize=1;fontSize=12;fontFamily=Times New Roman;" parent="1" vertex="1">
          <mxGeometry x="414.5" y="1629" width="30" height="20" as="geometry"/>
        </mxCell>
        <mxCell id="D4T93Kf8Fg8kUSdN_M_G-115" value="64" style="text;html=1;align=center;verticalAlign=middle;resizable=0;points=[];autosize=1;fontSize=12;fontFamily=Times New Roman;" parent="1" vertex="1">
          <mxGeometry x="414.5" y="1580" width="30" height="20" as="geometry"/>
        </mxCell>
        <mxCell id="D4T93Kf8Fg8kUSdN_M_G-116" value="570x570" style="text;html=1;align=center;verticalAlign=middle;resizable=0;points=[];autosize=1;fontSize=12;fontFamily=Times New Roman;" parent="1" vertex="1">
          <mxGeometry x="352" y="1649" width="60" height="20" as="geometry"/>
        </mxCell>
        <mxCell id="D4T93Kf8Fg8kUSdN_M_G-117" value="284x284" style="text;html=1;align=center;verticalAlign=middle;resizable=0;points=[];autosize=1;fontSize=12;fontFamily=Times New Roman;" parent="1" vertex="1">
          <mxGeometry x="392" y="1525" width="60" height="20" as="geometry"/>
        </mxCell>
        <mxCell id="D4T93Kf8Fg8kUSdN_M_G-118" value="64" style="text;html=1;align=center;verticalAlign=middle;resizable=0;points=[];autosize=1;fontSize=12;fontFamily=Times New Roman;" parent="1" vertex="1">
          <mxGeometry x="452" y="1512.5" width="30" height="20" as="geometry"/>
        </mxCell>
        <mxCell id="D4T93Kf8Fg8kUSdN_M_G-119" value="282x282" style="text;html=1;align=center;verticalAlign=middle;resizable=0;points=[];autosize=1;fontSize=12;fontFamily=Times New Roman;" parent="1" vertex="1">
          <mxGeometry x="392" y="1495" width="60" height="20" as="geometry"/>
        </mxCell>
        <mxCell id="D4T93Kf8Fg8kUSdN_M_G-120" value="128" style="text;html=1;align=center;verticalAlign=middle;resizable=0;points=[];autosize=1;fontSize=12;fontFamily=Times New Roman;" parent="1" vertex="1">
          <mxGeometry x="452" y="1480" width="30" height="20" as="geometry"/>
        </mxCell>
        <mxCell id="D4T93Kf8Fg8kUSdN_M_G-121" value="280x280" style="text;html=1;align=center;verticalAlign=middle;resizable=0;points=[];autosize=1;fontSize=12;fontFamily=Times New Roman;" parent="1" vertex="1">
          <mxGeometry x="392" y="1455" width="60" height="20" as="geometry"/>
        </mxCell>
        <mxCell id="D4T93Kf8Fg8kUSdN_M_G-122" value="128" style="text;html=1;align=center;verticalAlign=middle;resizable=0;points=[];autosize=1;fontSize=12;fontFamily=Times New Roman;" parent="1" vertex="1">
          <mxGeometry x="177" y="1440" width="30" height="20" as="geometry"/>
        </mxCell>
        <mxCell id="D4T93Kf8Fg8kUSdN_M_G-123" value="140x140" style="text;html=1;align=center;verticalAlign=middle;resizable=0;points=[];autosize=1;fontSize=12;fontFamily=Times New Roman;" parent="1" vertex="1">
          <mxGeometry x="556" y="1452.5" width="60" height="20" as="geometry"/>
        </mxCell>
        <mxCell id="D4T93Kf8Fg8kUSdN_M_G-124" value="128" style="text;html=1;align=center;verticalAlign=middle;resizable=0;points=[];autosize=1;fontSize=12;fontFamily=Times New Roman;" parent="1" vertex="1">
          <mxGeometry x="621" y="1437.5" width="30" height="20" as="geometry"/>
        </mxCell>
        <mxCell id="D4T93Kf8Fg8kUSdN_M_G-125" value="256" style="text;html=1;align=center;verticalAlign=middle;resizable=0;points=[];autosize=1;fontSize=12;fontFamily=Times New Roman;" parent="1" vertex="1">
          <mxGeometry x="621" y="1395" width="30" height="20" as="geometry"/>
        </mxCell>
        <mxCell id="D4T93Kf8Fg8kUSdN_M_G-126" value="138x138" style="text;html=1;align=center;verticalAlign=middle;resizable=0;points=[];autosize=1;fontSize=12;fontFamily=Times New Roman;" parent="1" vertex="1">
          <mxGeometry x="556" y="1415" width="60" height="20" as="geometry"/>
        </mxCell>
        <mxCell id="D4T93Kf8Fg8kUSdN_M_G-129" value="256" style="text;html=1;align=center;verticalAlign=middle;resizable=0;points=[];autosize=1;fontSize=12;fontFamily=Times New Roman;" parent="1" vertex="1">
          <mxGeometry x="461" y="1347.03" width="30" height="20" as="geometry"/>
        </mxCell>
        <mxCell id="D4T93Kf8Fg8kUSdN_M_G-130" value="136x136" style="text;html=1;align=center;verticalAlign=middle;resizable=0;points=[];autosize=1;fontSize=12;fontFamily=Times New Roman;" parent="1" vertex="1">
          <mxGeometry x="556" y="1367.03" width="60" height="20" as="geometry"/>
        </mxCell>
        <mxCell id="D4T93Kf8Fg8kUSdN_M_G-131" value="256" style="text;html=1;align=center;verticalAlign=middle;resizable=0;points=[];autosize=1;fontSize=12;fontFamily=Times New Roman;" parent="1" vertex="1">
          <mxGeometry x="727" y="1347.03" width="30" height="20" as="geometry"/>
        </mxCell>
        <mxCell id="D4T93Kf8Fg8kUSdN_M_G-132" value="68x68" style="text;html=1;align=center;verticalAlign=middle;resizable=0;points=[];autosize=1;fontSize=12;fontFamily=Times New Roman;" parent="1" vertex="1">
          <mxGeometry x="672" y="1367.03" width="50" height="20" as="geometry"/>
        </mxCell>
        <mxCell id="D4T93Kf8Fg8kUSdN_M_G-133" value="512" style="text;html=1;align=center;verticalAlign=middle;resizable=0;points=[];autosize=1;fontSize=12;fontFamily=Times New Roman;" parent="1" vertex="1">
          <mxGeometry x="727" y="1292" width="30" height="20" as="geometry"/>
        </mxCell>
        <mxCell id="D4T93Kf8Fg8kUSdN_M_G-134" value="66x66" style="text;html=1;align=center;verticalAlign=middle;resizable=0;points=[];autosize=1;fontSize=12;fontFamily=Times New Roman;" parent="1" vertex="1">
          <mxGeometry x="700" y="1322" width="50" height="20" as="geometry"/>
        </mxCell>
        <mxCell id="D4T93Kf8Fg8kUSdN_M_G-135" value="64x64" style="text;html=1;align=center;verticalAlign=middle;resizable=0;points=[];autosize=1;fontSize=12;fontFamily=Times New Roman;" parent="1" vertex="1">
          <mxGeometry x="700" y="1255" width="50" height="20" as="geometry"/>
        </mxCell>
        <mxCell id="D4T93Kf8Fg8kUSdN_M_G-136" value="512" style="text;html=1;align=center;verticalAlign=middle;resizable=0;points=[];autosize=1;fontSize=12;fontFamily=Times New Roman;" parent="1" vertex="1">
          <mxGeometry x="627" y="1225" width="30" height="20" as="geometry"/>
        </mxCell>
        <mxCell id="D4T93Kf8Fg8kUSdN_M_G-137" value="32x32" style="text;html=1;align=center;verticalAlign=middle;resizable=0;points=[];autosize=1;fontSize=12;fontFamily=Times New Roman;" parent="1" vertex="1">
          <mxGeometry x="758.68" y="1255" width="50" height="20" as="geometry"/>
        </mxCell>
        <mxCell id="D4T93Kf8Fg8kUSdN_M_G-140" value="512" style="text;html=1;align=center;verticalAlign=middle;resizable=0;points=[];autosize=1;fontSize=12;fontFamily=Times New Roman;" parent="1" vertex="1">
          <mxGeometry x="803.68" y="1225" width="30" height="20" as="geometry"/>
        </mxCell>
        <mxCell id="D4T93Kf8Fg8kUSdN_M_G-141" value="1024" style="text;html=1;align=center;verticalAlign=middle;resizable=0;points=[];autosize=1;fontSize=12;fontFamily=Times New Roman;" parent="1" vertex="1">
          <mxGeometry x="798.68" y="1010" width="40" height="20" as="geometry"/>
        </mxCell>
        <mxCell id="D4T93Kf8Fg8kUSdN_M_G-142" value="1024" style="text;html=1;align=center;verticalAlign=middle;resizable=0;points=[];autosize=1;fontSize=12;fontFamily=Times New Roman;" parent="1" vertex="1">
          <mxGeometry x="798.68" y="1135" width="40" height="20" as="geometry"/>
        </mxCell>
        <mxCell id="D4T93Kf8Fg8kUSdN_M_G-145" value="30x30" style="text;html=1;align=center;verticalAlign=middle;resizable=0;points=[];autosize=1;fontSize=12;fontFamily=Times New Roman;" parent="1" vertex="1">
          <mxGeometry x="788.68" y="1185" width="50" height="20" as="geometry"/>
        </mxCell>
        <mxCell id="D4T93Kf8Fg8kUSdN_M_G-148" value="28x28" style="text;html=1;align=center;verticalAlign=middle;resizable=0;points=[];autosize=1;fontSize=12;fontFamily=Times New Roman;" parent="1" vertex="1">
          <mxGeometry x="788.68" y="1070" width="50" height="20" as="geometry"/>
        </mxCell>
        <mxCell id="D4T93Kf8Fg8kUSdN_M_G-149" value="1024" style="text;html=1;align=center;verticalAlign=middle;resizable=0;points=[];autosize=1;fontSize=12;fontFamily=Times New Roman;" parent="1" vertex="1">
          <mxGeometry x="627" y="1020" width="40" height="20" as="geometry"/>
        </mxCell>
        <mxCell id="D4T93Kf8Fg8kUSdN_M_G-150" value="56x56" style="text;html=1;align=center;verticalAlign=middle;resizable=0;points=[];autosize=1;fontSize=12;fontFamily=Times New Roman;" parent="1" vertex="1">
          <mxGeometry x="690" y="1080" width="50" height="20" as="geometry"/>
        </mxCell>
        <mxCell id="D4T93Kf8Fg8kUSdN_M_G-151" value="54x54" style="text;html=1;align=center;verticalAlign=middle;resizable=0;points=[];autosize=1;fontSize=12;fontFamily=Times New Roman;" parent="1" vertex="1">
          <mxGeometry x="690" y="952" width="50" height="20" as="geometry"/>
        </mxCell>
        <mxCell id="D4T93Kf8Fg8kUSdN_M_G-152" value="52x52" style="text;html=1;align=center;verticalAlign=middle;resizable=0;points=[];autosize=1;fontSize=12;fontFamily=Times New Roman;" parent="1" vertex="1">
          <mxGeometry x="690" y="874" width="50" height="20" as="geometry"/>
        </mxCell>
        <mxCell id="D4T93Kf8Fg8kUSdN_M_G-155" value="512" style="text;html=1;align=center;verticalAlign=middle;resizable=0;points=[];autosize=1;fontSize=12;fontFamily=Times New Roman;" parent="1" vertex="1">
          <mxGeometry x="632" y="917" width="30" height="20" as="geometry"/>
        </mxCell>
        <mxCell id="D4T93Kf8Fg8kUSdN_M_G-157" value="512" style="text;html=1;align=center;verticalAlign=middle;resizable=0;points=[];autosize=1;fontSize=12;fontFamily=Times New Roman;" parent="1" vertex="1">
          <mxGeometry x="723.6800000000001" y="839" width="30" height="20" as="geometry"/>
        </mxCell>
        <mxCell id="D4T93Kf8Fg8kUSdN_M_G-158" value="104x104" style="text;html=1;align=center;verticalAlign=middle;resizable=0;points=[];autosize=1;fontSize=12;fontFamily=Times New Roman;" parent="1" vertex="1">
          <mxGeometry x="567" y="883.06" width="60" height="20" as="geometry"/>
        </mxCell>
        <mxCell id="D4T93Kf8Fg8kUSdN_M_G-159" value="512" style="text;html=1;align=center;verticalAlign=middle;resizable=0;points=[];autosize=1;fontSize=12;fontFamily=Times New Roman;" parent="1" vertex="1">
          <mxGeometry x="481.63000000000005" y="849" width="30" height="20" as="geometry"/>
        </mxCell>
        <mxCell id="D4T93Kf8Fg8kUSdN_M_G-160" value="512" style="text;html=1;align=center;verticalAlign=middle;resizable=0;points=[];autosize=1;fontSize=12;fontFamily=Times New Roman;" parent="1" vertex="1">
          <mxGeometry x="481.63000000000005" y="784.03" width="30" height="20" as="geometry"/>
        </mxCell>
        <mxCell id="D4T93Kf8Fg8kUSdN_M_G-161" value="256" style="text;html=1;align=center;verticalAlign=middle;resizable=0;points=[];autosize=1;fontSize=12;fontFamily=Times New Roman;" parent="1" vertex="1">
          <mxGeometry x="621" y="733.56" width="30" height="20" as="geometry"/>
        </mxCell>
        <mxCell id="D4T93Kf8Fg8kUSdN_M_G-162" value="102x102" style="text;html=1;align=center;verticalAlign=middle;resizable=0;points=[];autosize=1;fontSize=12;fontFamily=Times New Roman;" parent="1" vertex="1">
          <mxGeometry x="567" y="806.06" width="60" height="20" as="geometry"/>
        </mxCell>
        <mxCell id="D4T93Kf8Fg8kUSdN_M_G-165" value="100x100" style="text;html=1;align=center;verticalAlign=middle;resizable=0;points=[];autosize=1;fontSize=12;fontFamily=Times New Roman;" parent="1" vertex="1">
          <mxGeometry x="567" y="754.06" width="60" height="20" as="geometry"/>
        </mxCell>
        <mxCell id="D4T93Kf8Fg8kUSdN_M_G-166" value="200x200" style="text;html=1;align=center;verticalAlign=middle;resizable=0;points=[];autosize=1;fontSize=12;fontFamily=Times New Roman;" parent="1" vertex="1">
          <mxGeometry x="359.5" y="766.06" width="60" height="20" as="geometry"/>
        </mxCell>
        <mxCell id="D4T93Kf8Fg8kUSdN_M_G-167" value="256" style="text;html=1;align=center;verticalAlign=middle;resizable=0;points=[];autosize=1;fontSize=12;fontFamily=Times New Roman;" parent="1" vertex="1">
          <mxGeometry x="209.5" y="746.06" width="30" height="20" as="geometry"/>
        </mxCell>
        <mxCell id="D4T93Kf8Fg8kUSdN_M_G-168" value="198x198" style="text;html=1;align=center;verticalAlign=middle;resizable=0;points=[];autosize=1;fontSize=12;fontFamily=Times New Roman;" parent="1" vertex="1">
          <mxGeometry x="359.5" y="707" width="60" height="20" as="geometry"/>
        </mxCell>
        <mxCell id="D4T93Kf8Fg8kUSdN_M_G-169" value="196x196" style="text;html=1;align=center;verticalAlign=middle;resizable=0;points=[];autosize=1;fontSize=12;fontFamily=Times New Roman;" parent="1" vertex="1">
          <mxGeometry x="359.5" y="665" width="60" height="20" as="geometry"/>
        </mxCell>
        <mxCell id="D4T93Kf8Fg8kUSdN_M_G-170" value="128" style="text;html=1;align=center;verticalAlign=middle;resizable=0;points=[];autosize=1;fontSize=12;fontFamily=Times New Roman;" parent="1" vertex="1">
          <mxGeometry x="209.5" y="692" width="30" height="20" as="geometry"/>
        </mxCell>
        <mxCell id="D4T93Kf8Fg8kUSdN_M_G-173" value="128" style="text;html=1;align=center;verticalAlign=middle;resizable=0;points=[];autosize=1;fontSize=12;fontFamily=Times New Roman;" parent="1" vertex="1">
          <mxGeometry x="209.5" y="650" width="30" height="20" as="geometry"/>
        </mxCell>
        <mxCell id="D4T93Kf8Fg8kUSdN_M_G-174" value="392x392" style="text;html=1;align=center;verticalAlign=middle;resizable=0;points=[];autosize=1;fontSize=12;fontFamily=Times New Roman;" parent="1" vertex="1">
          <mxGeometry x="312" y="589" width="60" height="20" as="geometry"/>
        </mxCell>
        <mxCell id="D4T93Kf8Fg8kUSdN_M_G-177" value="390x390" style="text;html=1;align=center;verticalAlign=middle;resizable=0;points=[];autosize=1;fontSize=12;fontFamily=Times New Roman;" parent="1" vertex="1">
          <mxGeometry x="312" y="545" width="60" height="20" as="geometry"/>
        </mxCell>
        <mxCell id="D4T93Kf8Fg8kUSdN_M_G-180" value="388x388" style="text;html=1;align=center;verticalAlign=middle;resizable=0;points=[];autosize=1;fontSize=12;fontFamily=Times New Roman;" parent="1" vertex="1">
          <mxGeometry x="312" y="505" width="60" height="20" as="geometry"/>
        </mxCell>
        <mxCell id="D4T93Kf8Fg8kUSdN_M_G-181" value="388x388" style="text;html=1;align=center;verticalAlign=middle;resizable=0;points=[];autosize=1;fontSize=12;fontFamily=Times New Roman;" parent="1" vertex="1">
          <mxGeometry x="312" y="460" width="60" height="20" as="geometry"/>
        </mxCell>
        <mxCell id="D4T93Kf8Fg8kUSdN_M_G-182" value="128" style="text;html=1;align=center;verticalAlign=middle;resizable=0;points=[];autosize=1;fontSize=12;fontFamily=Times New Roman;" parent="1" vertex="1">
          <mxGeometry x="22" y="576.5" width="30" height="20" as="geometry"/>
        </mxCell>
        <mxCell id="D4T93Kf8Fg8kUSdN_M_G-183" value="64" style="text;html=1;align=center;verticalAlign=middle;resizable=0;points=[];autosize=1;fontSize=12;fontFamily=Times New Roman;" parent="1" vertex="1">
          <mxGeometry x="22" y="532.5" width="30" height="20" as="geometry"/>
        </mxCell>
        <mxCell id="D4T93Kf8Fg8kUSdN_M_G-185" value="64" style="text;html=1;align=center;verticalAlign=middle;resizable=0;points=[];autosize=1;fontSize=12;fontFamily=Times New Roman;" parent="1" vertex="1">
          <mxGeometry x="22" y="492.5" width="30" height="20" as="geometry"/>
        </mxCell>
        <mxCell id="D4T93Kf8Fg8kUSdN_M_G-186" value="2" style="text;html=1;align=center;verticalAlign=middle;resizable=0;points=[];autosize=1;fontSize=12;fontFamily=Times New Roman;" parent="1" vertex="1">
          <mxGeometry x="27" y="450" width="20" height="20" as="geometry"/>
        </mxCell>
        <mxCell id="D4T93Kf8Fg8kUSdN_M_G-187" value="&lt;font style=&quot;font-size: 42px&quot; face=&quot;宋体&quot;&gt;输出图像分割图&lt;/font&gt;" style="text;html=1;align=center;verticalAlign=middle;resizable=0;points=[];autosize=1;fontSize=12;fontFamily=Times New Roman;" parent="1" vertex="1">
          <mxGeometry x="57" y="410" width="310" height="30" as="geometry"/>
        </mxCell>
      </root>
    </mxGraphModel>
  </diagram>
</mxfile>
